<?xml version="1.0" encoding="UTF-8" standalone="no"?>
<svg
   xml:space="preserve"
   viewBox="0 0 110 110.00027"
   y="0"
   x="0"
   id="Ebene_1"
   version="1.1"
   class="svg-inline"
   sodipodi:docname="ZVKI.svg"
   width="110"
   height="110.00027"
   inkscape:version="1.1 (c68e22c387, 2021-05-23)"
   xmlns:inkscape="http://www.inkscape.org/namespaces/inkscape"
   xmlns:sodipodi="http://sodipodi.sourceforge.net/DTD/sodipodi-0.dtd"
   xmlns="http://www.w3.org/2000/svg"
   xmlns:svg="http://www.w3.org/2000/svg"><defs
     id="defs29" /><sodipodi:namedview
     id="namedview27"
     pagecolor="#ffffff"
     bordercolor="#666666"
     borderopacity="1.0"
     inkscape:pageshadow="2"
     inkscape:pageopacity="0.0"
     inkscape:pagecheckerboard="0"
     showgrid="false"
     showguides="true"
     inkscape:zoom="4.0004808"
     inkscape:cx="104.11248"
     inkscape:cy="78.240595"
     inkscape:window-width="1920"
     inkscape:window-height="1009"
     inkscape:window-x="-8"
     inkscape:window-y="-8"
     inkscape:window-maximized="1"
     inkscape:current-layer="Ebene_1" /><style
     id="style20">.uiiuasnfsfsdpp{display:none;fill:#228fff}</style><rect
     style="fill:none;stroke-width:0.8;stroke-opacity:0.511574;paint-order:fill markers stroke"
     id="rect723"
     width="110"
     height="110.00027"
     x="0"
     y="0" /><path
     id="metaballs"
     d="m 57.01,52.585 a 4.98,4.98 0 0 0 -4.37,-2.6 c -1.8,0 -6.12,2.71 -9.83,2.71 -2.5,0 -10.26,-2.71 -12.35,-2.71 -2.74,0 -4.97,2.23 -4.97,4.97 0,2.74 2.23,4.97 4.97,4.97 2.06,0 8.54,-2.68 12.26,-2.68 3.64,0 8,2.68 9.93,2.68 a 4.972,4.972 0 0 0 4.58,-6.9 c -0.08,-0.15 -0.15,-0.3 -0.22,-0.44 z" /><path
     id="dot2"
     d="m 97,49.985 c -2.74,0 -4.97,2.23 -4.97,4.97 0,2.74 2.23,4.97 4.97,4.97 2.74,0 4.97,-2.23 4.97,-4.97 0,-2.74 -2.22,-4.97 -4.97,-4.97 z" /><path
     id="dot1"
     d="m 74.82,49.985 c -2.74,0 -4.97,2.23 -4.97,4.97 0,2.74 2.23,4.97 4.97,4.97 2.74,0 4.97,-2.23 4.97,-4.97 0,-2.74 -2.23,-4.97 -4.97,-4.97 z" /><path
     id="zvki"
     d="m 22.52,76.165 10.98,15.3 h -6.56 l -8.01,-11.61 -4.83,4.96 v 6.65 H 8.0999997 v -36.6 H 14.1 v 22.9 h 0.21 l 11.46,-11.75 h 6.65 z m 16.38,-5.41 h 11 v 20.71 h 6 v -25.46 h -17 z m 14.91,-39.05 c -0.94,2.56 -1.7,5.12 -2.52,7.69 h -0.21 c -0.82,-2.57 -1.64,-5.13 -2.55,-7.69 l -4.9,-13.17 h -6.06 l 10.15,25.46 h 6.82 l 9.93,-25.46 h -5.74 z m -21.67,7.51 H 16.42 l 15.31,-17.49 v -3.19 H 9.7799997 v 4.75 H 23.3 L 8.0299997,40.795 v 3.19 H 32.14 Z" /></svg>
